<?xml version="1.0" encoding="UTF-8"?>
<svg width="131px" height="93px" viewBox="0 0 131 93" version="1.1" xmlns="http://www.w3.org/2000/svg" xmlns:xlink="http://www.w3.org/1999/xlink">
    <!-- Generator: Sketch 42 (36781) - http://www.bohemiancoding.com/sketch -->
    <title>kofulso-logo-white</title>
    <desc>Created with Sketch.</desc>
    <defs/>
    <g id="Page-1" stroke="none" stroke-width="1" fill="none" fill-rule="evenodd">
        <g id="01-kofulso-index" transform="translate(-174.000000, -33.000000)" fill="#FFFFFF">
            <g id="Header">
                <g id="kofulso-logo" transform="translate(160.000000, 0.000000)">
                    <g id="kofulso-logo-white" transform="translate(14.035088, 33.757193)">
                        <path d="M86.6876257,51.3512982 C86.1776842,50.6673216 85.8717193,49.9028772 85.769731,49.0598363 C88.166924,48.9559766 89.7978012,51.4270877 86.6876257,51.3512982 M58.3769825,38.8460351 C60.5870409,38.6514152 58.1402573,41.6736374 58.3769825,38.8460351 M41.2101988,36.9307135 C42.4162807,34.9779649 43.8946433,36.7725848 44.5542924,38.0712982 C45.5030643,39.9398363 45.1877427,41.6305965 44.2193216,43.420538 C43.3865731,44.960655 42.1337076,46.2472047 41.558269,47.9258012 C41.1465731,49.123462 41.2223626,50.5045146 40.7311345,51.677848 C39.0609591,55.6610058 37.6406082,50.2996023 37.7388538,48.163462 C37.9128889,44.377731 39.2218947,40.157848 41.2101988,36.9307135 M54.2094971,36.2065029 C55.3248187,36.1129357 56.492538,35.9669708 57.235462,36.8203041 C57.8146433,37.4836959 58.2104327,38.6289591 57.3234152,39.1454503 C55.7355789,40.0698947 54.146807,37.4668538 54.2094971,36.2065029 M67.8993216,41.6530526 C67.0403743,41.6072047 66.4368655,40.4385497 66.2001404,39.7798363 C64.1575673,40.7604211 65.4600234,40.5386667 65.2644678,41.4266199 C65.1044678,42.1573801 66.3273918,43.2146901 64.2314854,42.9611228 C62.3432982,42.7337544 60.3465731,38.3024094 61.1175673,36.692117 C62.4518363,33.9066199 63.421193,38.9105965 65.4871579,36.2701287 C66.995462,34.3417076 66.2263392,29.340538 69.9746433,30.997614 C70.9514854,31.4298947 74.2693801,33.4762105 73.8763977,34.7608889 C73.4721871,36.0792515 70.8448187,34.6654503 71.1133567,35.9744561 C71.2930058,36.8539883 73.6883275,37.2422924 74.3152281,37.4958596 C75.5662222,38.0029942 75.8572164,38.3931696 76.7414269,39.2811228 C77.3215439,39.8631111 77.7519532,40.6032281 78.4714854,41.0401871 C78.995462,41.3601871 80.4027135,41.4200702 80.7376842,41.7335205 C81.8857544,42.8104795 81.1091462,45.3311813 82.5145263,46.6130526 C82.8195556,46.8909474 84.0022456,47.2025263 84.1472749,47.4130526 C84.5870409,48.0539883 84.0827135,48.4656842 84.3924211,49.1403041 C82.1851696,49.2544561 85.5414269,53.337731 86.9421287,53.2226433 C86.8775673,53.3293099 87.104,53.5258012 87.2836491,53.5164444 C86.6408421,54.5821754 85.4749942,54.9564444 84.3054035,54.5774971 C82.8223626,54.0984327 83.0965146,52.7847485 82.032655,51.7517661 C79.7280936,49.5089591 79.5587368,52.5498947 80.4822456,52.7969123 C80.4064561,52.5704795 82.0747602,53.500538 81.3374503,53.5772632 C82.1093801,54.2004211 78.9018947,54.837614 78.3900819,54.6925848 C75.2303158,53.8027602 76.975345,50.8076725 76.9313684,48.6341053 C76.8780351,45.9477895 75.5465731,45.9421754 73.5854035,44.7856842 C72.5561637,44.1803041 72.2969825,43.2680234 71.4820117,42.5849825 C70.2778012,41.5753918 69.1999064,42.2425263 67.8993216,41.6530526 M64.1585029,33.0579649 C63.1320702,33.012117 62.1168655,30.4736374 62.6034152,29.7138713 C63.5306667,28.2654503 64.5842339,30.189193 65.5180351,30.1648655 C66.4424795,31.5496608 64.861193,33.1543392 64.1585029,33.0579649 M33.0408421,26.4221754 C33.2401404,24.8727018 33.3309006,22.0507135 34.8607251,23.8481404 C35.904,25.0729357 35.4445848,30.5831111 34.2506667,31.6535205 C33.389848,32.4254503 33.026807,26.5438129 33.0408421,26.4221754 M77.4123041,18.8039298 C78.8916023,19.8911813 77.9531228,22.9686082 76.5701988,23.6993684 C76.0406082,22.9789006 74.678269,20.0567953 75.3556959,19.1052164 C75.5540585,18.8254503 77.5666901,18.452117 77.4123041,18.8039298 M79.1236491,15.5309474 C79.1021287,15.4458012 80.6123041,18.5297778 80.0574503,18.3417076 C78.4995556,19.586152 77.1044678,16.8867368 79.1236491,15.5309474 M49.1175673,33.7438129 C48.5992047,33.4387836 48.0864561,33.1253333 47.5793216,32.8043977 C46.3021287,34.1985497 50.624,36.323462 49.1344094,38.2359766 C47.7028304,40.0745731 44.9594386,36.5265029 44.0864561,35.5356257 C43.1573333,34.4801871 42.138386,29.546386 40.9332398,30.2069708 C39.5035322,30.989193 41.721076,34.8245146 39.589614,35.0275556 C35.9114854,35.3784327 37.7360468,22.3267368 38.0195556,20.7660351 C38.3694971,18.8432281 38.5266901,16.6762105 40.1800234,17.1084912 C40.595462,17.2179649 40.2763977,19.8331696 41.6714854,17.8953918 C42.3273918,16.9840468 41.6144094,15.3653333 41.9484444,14.3632281 C43.4146433,9.96182456 45.5105497,17.717614 45.5592047,19.3391345 C45.5956959,20.5742222 44.9884444,21.8018246 45.2569825,23.0284912 C45.4740585,24.0193684 46.3835322,24.9597193 46.8532398,25.8224094 C47.638269,27.266152 47.4080936,30.8956257 48.3465731,31.7031111 C50.5790877,33.6212398 49.5030643,26.7767953 49.4048187,25.8102456 C49.2036491,23.8266199 48.9968655,21.8514152 48.8817778,19.8603041 C48.7928889,18.3332865 49.1072749,15.5814737 48.4139415,14.2032281 C47.5409591,12.4684912 44.7947602,13.0018246 44.9304327,10.8909474 C45.0333567,9.29281871 47.7580351,7.29983626 48.9547602,6.64392982 C52.4850526,4.70989474 51.7290292,8.16720468 50.9178012,10.6813567 C49.4721871,15.1707135 50.2235322,18.8722339 50.3825965,23.4953918 C50.461193,25.7756257 50.2684444,27.9969123 50.9393216,30.2041637 C51.3257544,31.4766784 52.8256374,33.6109474 52.3652865,35.0069708 C51.6513684,37.180538 48.8228304,34.666386 49.1175673,33.7438129 M87.792655,24.1232281 C88.3549942,24.7239298 88.9491462,21.6783158 89.3758129,21.4556257 C91.9049357,20.1363275 90.3676257,25.8336374 91.4174503,26.2902456 C93.8520702,27.3503626 93.2317193,20.9709474 93.8735906,19.8359766 C95.5194386,16.9204211 97.9306667,14.5101287 98.3367485,10.9386667 C101.202713,11.0050994 98.3825965,26.9714152 97.9512515,28.8193684 C97.5928889,30.349193 98.1196725,34.3847485 96.763883,35.7686082 C95.2022456,37.3611228 94.7606082,35.8743392 93.3730058,35.1052164 C91.9376842,34.3089591 92.3334737,34.5391345 90.9402573,35.0069708 C90.1159298,35.2839298 89.3103158,36.5854503 88.4728889,35.3550409 C92.0817778,33.9000702 86.2487953,27.040655 85.1540585,26.0029942 C80.4588538,21.554807 78.0186199,27.677848 81.2523041,31.149193 C83.1854035,33.2245146 82.7493801,30.8628772 84.9528889,30.7103626 C88.1903158,30.4867368 87.5774503,34.3669708 85.5507836,35.5346901 C81.7790877,37.7082573 77.3449357,31.949193 75.9423626,29.0289591 C75.0506667,27.1716491 74.9178012,26.4586667 76.3091462,25.2909474 C76.8817778,24.811883 77.7042339,24.7239298 78.2721871,24.1232281 C79.1657544,23.1781988 79.2864561,21.6268538 79.792655,20.4843977 C80.7479766,18.3239298 82.458386,16.9840468 80.3905497,14.9218246 C78.1739415,12.7155088 77.9231813,15.0893099 76.4541754,16.6013567 C74.6099649,18.5035789 74.3620117,17.3330526 74.3395556,15.3934035 C74.3114854,13.0083743 74.5444678,10.7440468 73.3224795,8.54895906 C72.5935906,7.24088889 70.1608421,4.56018713 68.3578012,5.39293567 C66.2403743,6.37071345 67.9152281,10.943345 68.6478596,12.4329357 C70.0476257,15.2773801 72.5767485,16.4198363 73.5507836,19.5122339 C74.3620117,22.086269 74.1617778,25.4911813 71.1713684,26.6925848 C69.1194386,27.5150409 66.5117193,25.129076 67.5465731,22.8553918 C68.8022456,20.0979649 70.4359298,25.0065029 71.369731,24.1129357 C72.0406082,23.4701287 68.6169825,21.066386 68.3634152,20.7211228 C66.9701988,18.8207719 67.5849357,16.8895439 64.758269,16.3693099 C64.8995556,16.7351579 64.1903158,16.6453333 64.1585029,16.6397193 C65.6901988,18.3445146 67.2237661,21.7035789 66.5603743,24.1466199 C65.6087953,27.6488421 62.7063392,23.8144561 60.4972164,25.1356257 C61.6434152,28.8942222 68.6703158,25.4097778 69.7023626,28.3786667 C70.355462,30.2593684 67.8656374,29.3751579 67.0179181,29.131883 C65.4076257,28.6696608 63.9882105,28.6846316 62.3657544,28.3767953 C60.7021287,28.0614737 59.9825965,27.1903626 59.055345,25.8486082 C58.5659883,25.1412398 57.4431813,22.4446316 56.3054035,22.5803041 C52.6862222,23.0125848 59.3032982,29.1534035 59.7701988,29.652117 C62.1449357,32.1849825 62.4303158,35.6048655 58.1018947,35.0818246 C52.7124211,34.4305965 52.4261053,31.5374971 51.7720702,26.6832281 C51.1423626,22.0086082 50.8214269,17.4022924 51.426807,12.7173801 C51.792655,9.88884211 51.9788538,5.92159064 54.2403743,3.90334503 C55.1919532,3.05469006 57.2494971,2.04416374 58.4359298,3.22030409 C59.5755789,4.35153216 58.8738246,7.19878363 59.0450526,8.6294269 C59.2761637,10.5625263 59.961076,12.2785497 61.1025965,13.7924678 C61.2494971,13.9870877 63.4661053,16.2008889 63.4492632,15.6825263 C63.4127719,14.5110643 61.5199064,12.9980819 61.0146433,11.9585497 C60.2473918,10.3866199 59.7701988,8.4114152 59.7290292,6.66825731 C59.6672749,3.97819883 59.5465731,1.47995322 62.6352281,2.0965614 C64.1014269,2.39036257 63.8656374,3.04159064 65.7987368,2.83387135 C67.8169825,2.61773099 69.1082105,2.39691228 71.0843509,3.0125848 C74.3404912,4.02778947 77.1821287,5.3714152 80.0911345,7.10521637 C82.9692632,8.82030409 82.2834152,9.62311111 82.2965146,12.8418246 C82.3049357,15.3905965 83.9152281,17.1356257 84.2015439,13.6025263 C84.2801404,12.6350409 83.7449357,11.9220585 83.7430643,11.1482573 C83.738386,9.9739883 84.5879766,7.36533333 86.3779181,7.58895906 C87.3145263,7.70591813 88.6609591,10.0441637 88.7694971,10.9536374 C89.0043509,12.9466199 87.9947602,11.9838129 87.1994386,13.4911813 C87.8244678,13.6586667 89.9559298,14.614924 89.9793216,15.1145731 C90.0130058,15.8546901 88.3082105,16.1784327 88.3802573,16.8418246 C88.5206082,18.1545731 94.4705497,15.2680234 91.2752281,19.4617076 C89.1166316,22.2958596 86.8242339,17.4341053 84.8883275,19.0500117 C83.7000234,20.0427602 86.5650526,23.9950409 87.792655,24.1232281 M73.6799064,2.34357895 C72.9828304,2.51948538 72.1163977,0.875508772 71.3032982,0.516210526 C69.8679766,-0.116304094 68.0780351,0.131649123 66.5706667,0.28322807 C63.5119532,0.590128655 59.8927719,-0.206128655 57.1044678,1.06357895 C55.1694971,1.94404678 53.9035322,2.68322807 51.8123041,3.13796491 C50.029848,3.52439766 47.5709006,3.53469006 45.9035322,4.2617076 C43.3463392,5.37702924 40.9884444,9.11691228 39.3828304,11.306386 C37.3309006,14.1040468 35.1245848,16.7922339 33.0923041,19.5992515 C31.1283275,22.3098947 29.4852865,25.1889591 29.8679766,28.649076 C30.2123041,31.7489591 31.5362807,35.0022924 29.5545263,37.9084912 C31.2714854,38.8385497 30.9758129,36.5190175 31.8291462,35.9959766 C33.4478596,35.0032281 34.258152,38.0160936 34.7213099,39.5384327 C36.4513684,45.2217076 31.3397895,51.3232281 35.4988538,56.1877895 C36.8789708,57.8008889 39.3603743,60.2448655 41.6321871,59.5964444 C44.6235322,58.7403041 45.0071579,55.6741053 45.0960468,53.1384327 C45.2158129,49.709193 44.8892632,45.8907135 45.8969825,42.5728187 C46.1907836,41.606269 46.7044678,39.6441637 48.0546433,40.477848 C49.1746433,41.1693099 48.1294971,44.3880234 48.3568655,45.5314152 C48.5645848,46.5784327 49.1362807,47.6338713 49.8988538,48.3814737 C50.2375673,48.7145731 51.9414269,50.1265029 52.3952281,50.186386 C54.086924,50.406269 55.3893801,48.5134035 55.9470409,47.0481404 C56.4448187,45.7438129 56.0808421,42.5512982 57.9128889,42.2266199 C60.0967485,41.8401871 62.0513684,45.3835789 64.1996725,45.6848655 C66.3227135,45.983345 68.3933567,44.7360936 70.7222456,45.172117 C73.349614,45.6642807 73.8717193,48.5162105 74.189848,51.0799532 C74.5248187,53.7859181 75.5128889,56.2439298 78.5042339,56.909193 C80.7395556,57.4079064 82.6745263,55.954807 85.0080936,56.2579649 C86.6202573,56.4675556 87.7365146,57.2881404 89.1999064,56.1756257 C90.3713684,55.2848655 90.9337076,53.3396023 91.1732398,51.9697778 C91.9114854,47.7414737 88.752655,48.8689591 86.518269,46.246269 C85.3215439,44.8427602 84.6899649,44.2008889 85.292538,42.3155088 C85.6733567,41.1215906 87.5428304,37.3480234 88.8827135,37.0850994 C90.1505497,36.8352749 89.5086784,38.4567953 91.4286784,38.4231111 C91.9676257,38.4137544 93.1100819,37.5089591 93.4909006,37.652117 C94.5678596,38.0591345 94.1393216,39.9192515 95.7234152,40.0212398 C97.5170994,40.1363275 99.8506667,37.2572632 100.536515,35.9042807 C101.759439,33.4902456 101.755696,30.834807 100.958503,28.3281404 C99.9170994,25.0514152 100.010667,23.5824094 100.707743,20.2298947 C101.095111,18.3660351 101.082947,16.5658012 101.026807,14.6757427 C100.985637,13.2581988 101.211135,5.67176608 99.0693801,5.40790643 C96.3774503,5.07761404 95.8965146,13.4986667 95.1797895,15.040655 C94.1673918,17.2226433 92.7152281,15.8537544 91.5465731,14.2228772 C89.9652865,12.0165614 91.2078596,8.65094737 90.7428304,6.08346199 C90.4761637,4.60884211 89.2494971,0.179368421 87.0759298,0.426385965 C84.3727719,0.73328655 86.6960468,4.79691228 85.018386,6.02451462 C83.3809591,7.22123977 81.6967485,4.61632749 80.283883,4.00439766 C78.3180351,3.15293567 75.3762807,3.74895906 73.6799064,2.34357895" id="Fill-2"/>
                        <path d="M11.0826667,81.0498246 L17.261848,88.2414035 C18.1376374,89.2519298 18.8899181,89.9424561 19.515883,90.3026901 C19.9790409,90.5525146 20.4590409,90.6863158 20.9680468,90.6863158 L20.9680468,91.1279532 L11.8209123,91.1279532 L11.8209123,90.6863158 C12.4010292,90.6348538 12.7724912,90.5487719 12.9399766,90.4318129 C13.1112047,90.3092398 13.1972865,90.1651462 13.1972865,89.9883041 C13.1972865,89.6477193 12.7968187,89.0123977 12.0024327,88.0842105 L7.9734269,83.3721637 L7.32219883,83.8755556 L7.32219883,88.3340351 C7.32219883,89.1854971 7.37553216,89.714152 7.48032749,89.9274854 C7.58418713,90.134269 7.78348538,90.3092398 8.07447953,90.459883 C8.37108772,90.617076 8.83985965,90.6863158 9.49108772,90.6863158 L9.49108772,91.1279532 L0.626526316,91.1279532 L0.626526316,90.6863158 L1.21038596,90.6863158 C1.71752047,90.6863158 2.13108772,90.6039766 2.44079532,90.4318129 C2.6662924,90.3242105 2.83845614,90.1305263 2.95915789,89.8526316 C3.05459649,89.6626901 3.10044444,89.1583626 3.10044444,88.3340351 L3.10044444,77.5906433 C3.10044444,76.7569591 3.05459649,76.2329825 2.95915789,76.0205848 C2.8637193,75.8138012 2.67003509,75.6350877 2.38278363,75.4778947 C2.08898246,75.3207018 1.70067836,75.2421053 1.21038596,75.2421053 L0.626526316,75.2421053 L0.626526316,74.7939181 L9.37132164,74.7939181 L9.37132164,75.2421053 C8.77810526,75.2421053 8.32336842,75.3207018 8.01366082,75.4816374 C7.78816374,75.5985965 7.60945029,75.7810526 7.48032749,76.0495906 C7.37553216,76.2488889 7.32219883,76.7607018 7.32219883,77.5906433 L7.32219883,82.6722807 L13.8419649,77.7730994 C14.7486316,77.0863158 15.2043041,76.539883 15.2043041,76.1319298 C15.2043041,75.8269006 15.0190409,75.5854971 14.6485146,75.4105263 C14.4576374,75.3207018 13.9841871,75.2636257 13.2319064,75.2421053 L13.2319064,74.7939181 L20.0885146,74.7939181 L20.0885146,75.2421053 C19.4737778,75.2804678 18.9956491,75.3805848 18.6466433,75.5452632 C18.2910877,75.7099415 17.487345,76.271345 16.2241871,77.2173099 L11.0826667,81.0498246 Z M31.184655,74.5674854 C33.9851228,74.4692398 36.2578713,75.2308772 38.010386,76.8430409 C39.7563509,78.4580117 40.633076,80.474386 40.633076,82.9043275 C40.633076,84.9768421 39.9837193,86.7995322 38.6784561,88.374269 C36.950269,90.459883 34.5072281,91.5050292 31.3549474,91.5050292 C28.196117,91.5050292 25.750269,90.5104094 24.0202105,88.5155556 C22.6578713,86.939883 21.9729591,85.074152 21.9729591,82.9155556 C21.9729591,80.4884211 22.8627836,78.4617544 24.635883,76.8467836 C26.4145965,75.2308772 28.5947135,74.4692398 31.184655,74.5674854 L31.184655,74.5674854 Z M31.3455906,75.3356725 C29.7343626,75.3356725 28.5133099,76.0991813 27.673076,77.6290058 C26.9947135,78.877193 26.6541287,80.6774269 26.6541287,83.0212865 C26.6541287,85.8105263 27.1752982,87.8680702 28.2326082,89.2023392 C28.9624327,90.134269 29.9944795,90.6039766 31.3184561,90.6039766 C32.2092164,90.6039766 32.9512047,90.3990643 33.5490994,90.0004678 C34.3041871,89.4877193 34.8955322,88.6633918 35.3203275,87.5302924 C35.7469942,86.4084211 35.9593918,84.9347368 35.9593918,83.1185965 C35.9593918,80.96 35.7413801,79.3412865 35.3090994,78.2699415 C34.8749474,77.1976608 34.3257076,76.4388304 33.6538947,75.997193 C32.9858246,75.5602339 32.2167018,75.3356725 31.3455906,75.3356725 L31.3455906,75.3356725 Z M49.1411462,75.7352047 L49.1411462,82.445848 L49.6482807,82.445848 C50.4230175,82.445848 51.0583392,82.3363743 51.5495673,82.1192982 C52.044538,81.9031579 52.4609123,81.5391813 52.8033684,81.0264327 C53.1420819,80.5127485 53.3694503,79.8166082 53.4714386,78.937076 L53.9205614,78.937076 L53.9205614,87.1391813 L53.4714386,87.1391813 C53.3086316,85.5925146 52.8604444,84.5735673 52.1268772,84.0795322 C51.398924,83.5864327 50.5736608,83.3338012 49.6482807,83.3338012 L49.1411462,83.3338012 L49.1411462,88.3340351 C49.1411462,89.1695906 49.1916725,89.6916959 49.2917895,89.9022222 C49.3909708,90.1146199 49.5883977,90.2952047 49.8737778,90.4505263 C50.1629006,90.6095906 50.5549474,90.6863158 51.0461754,90.6863158 L51.6319064,90.6863158 L51.6319064,91.1279532 L42.4436023,91.1279532 L42.4436023,90.6863158 L43.0283977,90.6863158 C43.5345965,90.6863158 43.9462924,90.6039766 44.2569357,90.4318129 C44.4824327,90.3242105 44.6555322,90.1305263 44.7734269,89.8526316 C44.8726082,89.6626901 44.9147135,89.1583626 44.9147135,88.3340351 L44.9147135,77.5906433 C44.9147135,76.7569591 44.8726082,76.2329825 44.7734269,76.0205848 C44.681731,75.8138012 44.4861754,75.6350877 44.1998596,75.4778947 C43.9088655,75.3207018 43.5186901,75.2421053 43.0283977,75.2421053 L42.4436023,75.2421053 L42.4436023,74.7939181 L57.2655906,74.7939181 L57.2655906,79.4816374 L56.736,79.4816374 C56.6152982,78.3794152 56.304655,77.5644444 55.8096842,77.0329825 C55.3119064,76.5033918 54.5923743,76.1319298 53.650152,75.9167251 C53.1317895,75.7997661 52.1736608,75.7352047 50.7767018,75.7352047 L49.1411462,75.7352047 Z M58.9451228,74.7939181 L68.0127251,74.7939181 L68.0127251,75.2421053 L67.5626667,75.2421053 C66.8824327,75.2421053 66.4127251,75.3076023 66.1563509,75.4414035 C65.8999766,75.571462 65.7184561,75.7557895 65.6108538,75.9859649 C65.5051228,76.2217544 65.4499181,76.8046784 65.4499181,77.7328655 L65.4499181,85.7338012 C65.4499181,87.1934503 65.5668772,88.162807 65.8054737,88.6409357 C66.0450058,89.1125146 66.4333099,89.5017544 66.9797427,89.819883 C67.5224327,90.1305263 68.2082807,90.2895906 69.0391579,90.2895906 C69.9916725,90.2895906 70.7982222,90.0902924 71.4662924,89.6916959 C72.1427836,89.2959064 72.6396257,88.7504094 72.9736608,88.045848 C73.3039532,87.3506433 73.4723743,86.1323977 73.4723743,84.3957895 L73.4723743,77.7328655 C73.4723743,77.0002339 73.3900351,76.4809357 73.2253567,76.1665497 C73.0625497,75.8559064 72.8538947,75.6350877 72.6059415,75.52 C72.2167018,75.3319298 71.6683977,75.2421053 70.9572865,75.2421053 L70.9572865,74.7939181 L77.0335439,74.7939181 L77.0335439,75.2421053 L76.6705029,75.2421053 C76.1774035,75.2421053 75.7647719,75.3319298 75.4391579,75.52 C75.1107368,75.7024561 74.8749474,75.9784795 74.7289825,76.3461988 C74.6176374,76.6091228 74.5633684,77.0676023 74.5633684,77.7328655 L74.5633684,83.9373099 C74.5633684,85.8582456 74.4230175,87.2449123 74.1516725,88.0963743 C73.8775205,88.9459649 73.2141287,89.7300585 72.1605614,90.4430409 C71.1126082,91.1616374 69.6698012,91.5181287 67.8461754,91.5181287 C66.3285146,91.5181287 65.1533099,91.3291228 64.3205614,90.9529825 C63.1912047,90.4392982 62.3921404,89.7815205 61.9214971,88.9740351 C61.4583392,88.1693567 61.2253567,87.091462 61.2253567,85.7338012 L61.2253567,77.7328655 C61.2253567,76.7934503 61.1710877,76.214269 61.0569357,75.9822222 C60.9455906,75.7501754 60.7528421,75.571462 60.473076,75.4376608 C60.1970526,75.2973099 59.6880468,75.2346199 58.9451228,75.2421053 L58.9451228,74.7939181 Z M94.5072281,85.3960234 L93.850386,91.1279532 L78.2424327,91.1279532 L78.2424327,90.6863158 L78.8281637,90.6863158 C79.3352982,90.6863158 79.7488655,90.6039766 80.0585731,90.4318129 C80.2850058,90.3242105 80.4552982,90.1305263 80.5806784,89.8526316 C80.6733099,89.6626901 80.7210292,89.1583626 80.7210292,88.3340351 L80.7210292,77.5906433 C80.7210292,76.7569591 80.6733099,76.2329825 80.5806784,76.0205848 C80.4796257,75.8138012 80.2906199,75.6350877 80.0014971,75.4778947 C79.7114386,75.3207018 79.3203275,75.2421053 78.8281637,75.2421053 L78.2424327,75.2421053 L78.2424327,74.7939181 L87.616,74.7939181 L87.616,75.2421053 L86.8534269,75.2421053 C86.3397427,75.2421053 85.9308538,75.3244444 85.6174035,75.4928655 C85.3975205,75.6060819 85.221614,75.7997661 85.0878129,76.0720468 C84.9933099,76.2638596 84.9455906,76.7756725 84.9455906,77.5906433 L84.9455906,87.9981287 C84.9455906,88.8308772 84.9998596,89.3651462 85.1009123,89.5915789 C85.2085146,89.8236257 85.4078129,89.9976608 85.7137778,90.1071345 C85.9280468,90.1819883 86.450152,90.2128655 87.2754152,90.2128655 L88.7425497,90.2128655 C89.6754152,90.2128655 90.4510877,90.0631579 91.076117,89.7562573 C91.6936608,89.4559064 92.2354152,88.9702924 92.6826667,88.3125146 C93.1402105,87.6547368 93.5724912,86.6825731 93.9776374,85.3960234 L94.5072281,85.3960234 Z M108.182082,74.4233918 L108.332725,79.8652632 L107.796585,79.8652632 C107.544889,78.5019883 106.932023,77.4072515 105.951439,76.5707602 C104.968047,75.7389474 103.913544,75.3244444 102.772023,75.3244444 C101.893427,75.3244444 101.193544,75.5377778 100.677988,75.9822222 C100.159626,76.4210526 99.9041871,76.9216374 99.9041871,77.4933333 C99.9041871,77.8573099 99.9968187,78.1810526 100.176468,78.4580117 C100.427228,78.8350877 100.82676,79.2074854 101.38255,79.5808187 C101.787696,79.8418713 102.72524,80.3134503 104.19331,80.9861988 C106.254596,81.9265497 107.632842,82.8173099 108.352374,83.6519298 C109.065357,84.4818713 109.416234,85.4390643 109.416234,86.5160234 C109.416234,87.8811696 108.841731,89.0563743 107.703953,90.0388304 C106.555883,91.0240936 105.100912,91.5181287 103.341848,91.5181287 C102.786994,91.5181287 102.264889,91.4666667 101.772725,91.3609357 C101.281497,91.254269 100.664889,91.0568421 99.9200936,90.768655 C99.5027836,90.6095906 99.1631345,90.5328655 98.8992749,90.5328655 C98.6709708,90.5328655 98.4323743,90.6095906 98.1872281,90.768655 C97.9336608,90.9295906 97.7296842,91.1756725 97.5743626,91.5050292 L97.0962339,91.5050292 L97.0962339,85.337076 L97.5743626,85.337076 C97.9533099,87.0727485 98.6840702,88.3948538 99.7713216,89.3080702 C100.855766,90.2166082 102.025357,90.6750877 103.276351,90.6750877 C104.241965,90.6750877 105.012023,90.4280702 105.587462,89.9424561 C106.164772,89.4493567 106.450152,88.8767251 106.450152,88.2301754 C106.450152,87.8409357 106.34255,87.4676023 106.120795,87.1083041 C105.898105,86.7499415 105.566877,86.3990643 105.114012,86.077193 C104.66676,85.7534503 103.871439,85.3277193 102.731789,84.8093567 C101.135532,84.0739181 99.9837193,83.4545029 99.2875789,82.9380117 C98.5848889,82.4261988 98.0487485,81.8498246 97.6698012,81.2182456 C97.2964678,80.5819883 97.1055906,79.8821053 97.1055906,79.1195322 C97.1055906,77.8189474 97.6220819,76.7111111 98.6475789,75.794152 C99.6805614,74.8762573 100.974596,74.4233918 102.536234,74.4233918 C103.109801,74.4233918 103.660912,74.4851462 104.19331,74.611462 C104.602199,74.7125146 105.096234,74.8874854 105.679158,75.1504094 C106.260211,75.4105263 106.669099,75.5377778 106.901146,75.5377778 C107.125708,75.5377778 107.305357,75.4778947 107.431673,75.3459649 C107.564538,75.2205848 107.68524,74.9127485 107.796585,74.4233918 L108.182082,74.4233918 Z M120.99331,74.5674854 C123.794713,74.4692398 126.068398,75.2308772 127.81717,76.8430409 C129.565942,78.4580117 130.440795,80.474386 130.440795,82.9043275 C130.440795,84.9768421 129.788632,86.7995322 128.486175,88.374269 C126.755181,90.459883 124.317754,91.5050292 121.15986,91.5050292 C118.002901,91.5050292 115.557988,90.5104094 113.829801,88.5155556 C112.464655,86.939883 111.780678,85.074152 111.780678,82.9155556 C111.780678,80.4884211 112.668632,78.4617544 114.443602,76.8467836 C116.219509,75.2308772 118.399626,74.4692398 120.99331,74.5674854 L120.99331,74.5674854 Z M121.154246,75.3356725 C119.538339,75.3356725 118.322901,76.0991813 117.482667,77.6290058 C116.796819,78.877193 116.459041,80.6774269 116.459041,83.0212865 C116.459041,85.8105263 116.987696,87.8680702 118.042199,89.2023392 C118.772959,90.134269 119.805006,90.6039766 121.124304,90.6039766 C122.018807,90.6039766 122.758924,90.3990643 123.35214,90.0004678 C124.109099,89.4877193 124.703251,88.6633918 125.130854,87.5302924 C125.554713,86.4084211 125.768047,84.9347368 125.768047,83.1185965 C125.768047,80.96 125.549099,79.3412865 125.117754,78.2699415 C124.682667,77.1976608 124.136234,76.4388304 123.460678,75.997193 C122.793544,75.5602339 122.023485,75.3356725 121.154246,75.3356725 L121.154246,75.3356725 Z" id="Fill-4"/>
                    </g>
                </g>
            </g>
        </g>
    </g>
</svg>